<svg width="32" height="46" viewBox="0 0 32 46" fill="none" xmlns="http://www.w3.org/2000/svg">
<path d="M16 10.2857C17.5155 10.2857 18.969 10.8878 20.0406 11.9594C21.1122 13.031 21.7143 14.4845 21.7143 16C21.7143 16.7504 21.5665 17.4935 21.2793 18.1868C20.9921 18.8801 20.5712 19.51 20.0406 20.0406C19.51 20.5712 18.8801 20.9921 18.1868 21.2793C17.4935 21.5665 16.7504 21.7143 16 21.7143C14.4845 21.7143 13.031 21.1122 11.9594 20.0406C10.8878 18.969 10.2857 17.5155 10.2857 16C10.2857 14.4845 10.8878 13.031 11.9594 11.9594C13.031 10.8878 14.4845 10.2857 16 10.2857ZM16 0C20.2435 0 24.3131 1.68571 27.3137 4.68629C30.3143 7.68687 32 11.7565 32 16C32 28 16 45.7143 16 45.7143C16 45.7143 0 28 0 16C0 11.7565 1.68571 7.68687 4.68629 4.68629C7.68687 1.68571 11.7565 0 16 0ZM16 4.57143C12.969 4.57143 10.0621 5.77551 7.91878 7.91878C5.77551 10.0621 4.57143 12.969 4.57143 16C4.57143 18.2857 4.57143 22.8571 16 38.1943C27.4286 22.8571 27.4286 18.2857 27.4286 16C27.4286 12.969 26.2245 10.0621 24.0812 7.91878C21.9379 5.77551 19.031 4.57143 16 4.57143Z" fill="#FFB10C"/>
<path fill-rule="evenodd" clip-rule="evenodd" d="M16 4.57143C12.969 4.57143 10.0621 5.77551 7.91878 7.91878C5.77551 10.0621 4.57143 12.969 4.57143 16C4.57143 18.2857 4.57143 22.8571 16 38.1943C27.4286 22.8571 27.4286 18.2857 27.4286 16C27.4286 12.969 26.2245 10.0621 24.0812 7.91878C21.9379 5.77551 19.031 4.57143 16 4.57143ZM20.0406 11.9594C18.969 10.8878 17.5155 10.2857 16 10.2857C14.4845 10.2857 13.031 10.8878 11.9594 11.9594C10.8878 13.031 10.2857 14.4845 10.2857 16C10.2857 17.5155 10.8878 18.969 11.9594 20.0406C13.031 21.1122 14.4845 21.7143 16 21.7143C16.7504 21.7143 17.4935 21.5665 18.1868 21.2793C18.8801 20.9921 19.51 20.5712 20.0406 20.0406C20.5712 19.51 20.9921 18.8801 21.2793 18.1868C21.5665 17.4935 21.7143 16.7504 21.7143 16C21.7143 14.4845 21.1122 13.031 20.0406 11.9594Z" fill="#FFB10C"/>
<path fill-rule="evenodd" clip-rule="evenodd" d="M16 4.57143C12.969 4.57143 10.0621 5.77551 7.91878 7.91878C5.77551 10.0621 4.57143 12.969 4.57143 16C4.57143 18.2857 4.57143 22.8571 16 38.1943C27.4286 22.8571 27.4286 18.2857 27.4286 16C27.4286 12.969 26.2245 10.0621 24.0812 7.91878C21.9379 5.77551 19.031 4.57143 16 4.57143ZM20.0406 11.9594C18.969 10.8878 17.5155 10.2857 16 10.2857C14.4845 10.2857 13.031 10.8878 11.9594 11.9594C10.8878 13.031 10.2857 14.4845 10.2857 16C10.2857 17.5155 10.8878 18.969 11.9594 20.0406C13.031 21.1122 14.4845 21.7143 16 21.7143C16.7504 21.7143 17.4935 21.5665 18.1868 21.2793C18.8801 20.9921 19.51 20.5712 20.0406 20.0406C20.5712 19.51 20.9921 18.8801 21.2793 18.1868C21.5665 17.4935 21.7143 16.7504 21.7143 16C21.7143 14.4845 21.1122 13.031 20.0406 11.9594Z" fill="white"/>
</svg>
